<?xml version="1.0" encoding="UTF-8" standalone="no"?>
<!DOCTYPE svg PUBLIC "-//W3C//DTD SVG 1.1//EN" "http://www.w3.org/Graphics/SVG/1.1/DTD/svg11.dtd">
<!-- Created with Vectornator (http://vectornator.io/) -->
<svg height="100%" stroke-miterlimit="10" style="fill-rule:nonzero;clip-rule:evenodd;stroke-linecap:round;stroke-linejoin:round;" version="1.1" viewBox="0 0 100 100" width="100%" xml:space="preserve" xmlns="http://www.w3.org/2000/svg" xmlns:vectornator="http://vectornator.io" xmlns:xlink="http://www.w3.org/1999/xlink">
<defs/>
<g id="Layer-1" vectornator:layerName="Layer 1">
<g opacity="1" vectornator:layerName="Group 39">
<g opacity="1" vectornator:layerName="Oval 5">
<path d="M89.9991 33.7367C87.7853 28.305 87.005 23.1718 82.723 18.9046C78.4404 14.6374 72.1497 12.7241 67.1399 10.6153C62.1296 8.50644 57.2955 3.30305 51.2506 3.2236C45.2059 3.14414 40.6788 8.62339 35.2472 10.8371C29.8155 13.0508 21.9678 12.6149 17.7006 16.897C13.4335 21.1791 13.6137 28.2792 11.5049 33.2895C9.39601 38.2997 5.28334 43.2382 5.20388 49.283C5.12443 55.328 9.10592 60.3709 11.3196 65.8027C13.5333 71.2345 14.5173 77.1204 18.7994 81.3874C23.0815 85.6544 29.1688 86.8154 34.179 88.9243C39.1893 91.0332 44.0234 96.2363 50.0682 96.3161C56.113 96.3953 61.261 91.3234 66.6922 89.1096C72.124 86.8957 78.8887 86.6789 83.107 82.3492C87.3258 78.0195 86.7656 71.303 88.8745 66.2927C90.9834 61.2824 94.9928 56.5495 95.0721 50.5045C95.1519 44.4598 92.2129 39.1684 89.9991 33.7367Z" fill="#708e83" fill-rule="nonzero" opacity="1" stroke="none" vectornator:layerName="path"/>
<path d="M49.9709 2.47676C45.2452 2.88667 41.2819 6.11578 37.2356 8.26706C36.426 8.69751 35.6239 9.10986 34.7588 9.42175C33.8254 9.75832 32.865 9.98008 31.9139 10.2585C28.4069 11.2852 24.8291 12.0828 21.5382 13.7227C20.2015 14.3887 18.9246 15.1115 17.8398 16.1493C15.0029 18.8631 13.7966 22.7218 12.7356 26.3911C12.1982 28.2495 11.7035 30.1347 10.9282 31.9136C9.96409 34.1259 8.57693 36.114 7.36366 38.1892C4.91272 42.3813 2.53206 47.6755 3.89952 52.598C4.48442 54.7035 5.57706 56.6769 6.72773 58.5223C7.23649 59.3379 7.82828 60.1117 8.30082 60.9488C8.66744 61.5983 8.97225 62.2897 9.30492 62.957C9.74238 63.8347 10.2012 64.721 10.5601 65.6346C11.1112 67.0376 11.4444 68.544 11.8152 70.0022C12.2546 71.7309 12.6747 73.4644 13.1874 75.1738C13.4075 75.9069 13.6411 76.6432 13.9405 77.349C14.328 78.2626 14.8352 79.1543 15.363 79.9934C15.8962 80.8406 16.4821 81.7349 17.2205 82.4199C17.7743 82.9334 18.4405 83.3747 19.0781 83.7753C20.9553 84.955 23.0785 85.8027 25.1864 86.4695C25.8853 86.6906 26.6015 86.8368 27.295 87.0719C28.1943 87.3772 29.0765 87.8013 29.9559 88.1601C31.0276 88.5971 32.1113 88.9934 33.1188 89.5653C34.5662 90.3879 35.8266 91.4096 37.1352 92.4271C38.1275 93.1988 39.17 93.9126 40.1977 94.6361C40.8234 95.0769 41.452 95.5476 42.1389 95.8914C42.8241 96.2347 43.5574 96.4981 44.281 96.745C45.2585 97.0781 46.2629 97.3791 47.2933 97.4979C48.8885 97.6822 50.5802 97.4776 52.113 96.9962C52.6237 96.8355 53.1279 96.6459 53.6358 96.4772C54.6177 96.1506 55.5706 95.8362 56.5141 95.4062C57.228 95.0806 57.9161 94.6886 58.623 94.3518C59.2919 94.0331 59.9988 93.7697 60.6816 93.4816C61.7826 93.0167 62.8863 92.5722 63.9948 92.1262C64.8243 91.7925 65.6614 91.4846 66.5219 91.2393C67.1555 91.0583 67.8131 90.9619 68.4466 90.7874C69.1583 90.5908 69.8475 90.3177 70.5549 90.1008C71.5381 89.8004 72.5476 89.5557 73.5169 89.214C75.087 88.6613 76.6213 87.8142 78.0522 86.9718C79.4767 86.1326 80.9129 85.2292 82.1355 84.11C83.3324 83.0143 84.3847 81.6514 85.1982 80.2441C87.6492 76.0027 87.699 70.8885 89.8336 66.5214C90.8184 64.5068 92.1085 62.663 93.1806 60.6976C95.1486 57.0898 96.7793 53.1321 96.4607 48.933C96.3091 46.9351 95.6852 44.9906 94.988 43.126C94.3277 41.36 94.7159 42.5211 90.503 33.5871C90.5062 33.5734 90.5009 33.5669 90.503 33.5536C90.5218 33.4375 90.5212 33.3343 90.4527 33.2691C89.071 28.3243 89.5016 29.977 89.0641 28.3156C88.0075 24.3066 86.7592 20.1961 83.9595 17.0195C83.0963 16.0397 82.0413 15.1976 80.981 14.4422C80.3506 13.9934 79.6855 13.559 79.006 13.1871C77.883 12.5724 76.6786 12.0884 75.4919 11.6141C74.785 11.3316 74.0942 11.0531 73.3664 10.8275C70.647 9.98431 67.8286 9.40766 65.2163 8.25035C60.2815 6.06391 55.7162 1.9784 49.9709 2.47676ZM50.4897 4.01638C51.1467 3.95045 51.8082 3.96456 52.4812 4.04985C55.1839 4.39238 57.6254 5.79986 59.8279 7.31319C60.6564 7.88245 61.4859 8.44726 62.2881 9.05363C63.2762 9.80095 64.2283 10.5811 65.2667 11.2626C66.6478 12.1693 68.1547 12.893 69.6178 13.6557C72.0185 14.9074 74.446 16.098 76.7803 17.4713C77.6195 17.9651 78.4581 18.4349 79.2571 18.9942C80.0449 19.5453 80.7721 20.1589 81.4993 20.7848C82.1843 21.374 82.829 21.977 83.424 22.6591C85.2549 24.7581 83.4256 22.6657 89.5493 34.2063C89.5723 34.2281 89.6199 34.2117 89.6494 34.223C91.0985 38.1812 90.6605 37.0236 91.1724 38.4067C92.0319 40.7286 92.8855 43.1107 93.3311 45.5526C93.6353 47.2186 93.7354 48.8828 93.6824 50.5731C93.6497 51.6274 93.5507 52.6582 93.2979 53.6858C92.0957 58.5721 88.7637 62.6431 87.4575 67.5089C86.5348 70.9448 86.5702 74.6152 85.3154 77.9681C84.8688 79.1612 84.2862 80.4476 83.3737 81.3654C82.3235 82.4225 80.9681 83.2853 79.5586 83.7753C78.0854 84.2872 76.5045 84.3659 74.973 84.5619C73.9999 84.6862 73.0483 84.9577 72.0945 85.181C71.1162 85.4102 70.0805 85.5966 69.1326 85.9339C68.363 86.2076 67.593 86.606 66.8732 86.9884C65.1258 87.917 63.5005 89.0276 61.9363 90.2347C60.8331 91.0867 59.7744 92.033 58.6059 92.7956C57.5579 93.4794 56.3776 94.0503 55.2257 94.536C54.773 94.7266 54.3282 94.9285 53.8534 95.0544C51.4888 95.6836 48.5795 94.8943 46.4733 93.8495C45.3768 93.3059 44.3809 92.5947 43.3104 92.0089C41.9969 91.2902 40.6858 90.5796 39.3776 89.8502C38.1027 89.139 36.7203 88.5821 35.3278 88.143C34.6546 87.9309 33.9636 87.7863 33.2861 87.5908C32.3801 87.3295 31.4782 87.0264 30.5751 86.7538C29.6682 86.4807 28.7061 86.2644 27.8306 85.9007C27.1778 85.6298 26.542 85.2528 25.9227 84.9132C24.003 83.8599 22.2262 82.6303 20.7349 81.0141C20.2266 80.4631 19.801 79.8665 19.3459 79.2737C18.4956 78.1657 17.6355 77.1193 16.9528 75.893C16.1835 74.5113 15.4512 73.0906 14.7773 71.6591C13.8781 69.7495 13.0865 67.7943 12.1499 65.9023C11.6062 64.804 11.0914 63.7019 10.5433 62.6057C10.0984 61.7156 9.59239 60.8454 9.17104 59.9447C8.73266 59.0075 8.41392 57.9948 8.08329 57.0159C7.75786 56.0525 7.43098 55.0817 7.21305 54.0874C6.71924 51.8345 6.68441 49.4544 7.02896 47.1759C7.17444 46.2138 7.47601 45.3276 7.79877 44.4146C8.37221 42.7925 9.09735 41.2705 9.85715 39.7288C11.073 37.2618 12.3498 34.7508 13.0536 32.081C14.1029 28.0999 14.0587 23.8514 15.9153 20.0987C16.5216 18.873 17.3164 17.7741 18.3753 16.9023C20.7553 14.9427 23.6228 14.6136 26.5754 14.2414C28.3967 14.0119 30.2729 13.883 32.0645 13.4717C33.3611 13.1739 34.6039 12.7326 35.8131 12.183C39.1663 10.659 41.8703 8.07609 44.9504 6.10825C46.6266 5.03736 48.5187 4.21416 50.4897 4.01638Z" fill="#708e83" fill-rule="nonzero" opacity="1" stroke="none" vectornator:layerName="path"/>
</g>
<path d="M50.2888 6.47642C44.8046 6.84028 40.9055 11.3697 35.947 13.1537C35.0775 13.4665 34.1767 13.6808 33.2861 13.9235C30.0936 14.7934 26.8527 15.4231 23.8309 16.8187C22.4925 17.4367 21.2694 18.1903 20.2161 19.2285C16.4634 22.9273 16.269 28.7183 14.4091 33.3695C13.5648 35.4808 12.3001 37.3935 11.1792 39.3606C9.59099 42.148 8.17883 45.105 7.83224 48.3306C7.74988 49.0969 7.71769 49.872 7.79877 50.64C7.89645 51.5657 8.13545 52.4881 8.4347 53.3678C8.93568 54.8406 9.65413 56.271 10.4262 57.6184C10.8709 58.3949 11.3532 59.1425 11.7817 59.9281C12.5405 61.3183 13.2776 62.761 13.8735 64.2288C15.5185 68.2811 15.9516 72.7147 18.1577 76.5624C18.8446 77.7603 19.6547 78.9181 20.7182 79.8092C22.4641 81.2712 24.5546 82.2924 26.6758 83.0893C27.5167 83.4047 28.3732 83.6451 29.2195 83.9423C30.2513 84.3049 31.2632 84.7328 32.282 85.1307C33.4684 85.5939 34.6288 86.0732 35.7295 86.7206C36.6772 87.2781 37.5528 87.9507 38.4405 88.5949C39.3759 89.274 40.3285 89.9214 41.2855 90.5699C41.8664 90.963 42.4514 91.3845 43.0761 91.7074C44.5019 92.4448 46.1363 93.0312 47.7284 93.2641C49.7149 93.5544 51.5424 93.1656 53.4183 92.561C55.0216 92.0448 56.4729 91.3309 57.9702 90.5699C58.9963 90.0478 60.0598 89.5749 61.0998 89.0801C62.0932 88.6078 63.0887 88.1301 64.1121 87.7247C65.098 87.3343 66.1101 87.0987 67.1244 86.8042C67.7831 86.613 68.4236 86.3795 69.0822 86.1851C69.9862 85.9184 70.9143 85.6924 71.8102 85.3984C73.451 84.8608 75.072 84.0714 76.5629 83.2065C77.6249 82.5896 78.6488 81.9615 79.5752 81.148C81.1984 79.7219 82.4531 77.8637 83.2398 75.8598C84.3949 72.9187 84.7548 69.7559 85.7669 66.7725C86.5578 64.4414 87.9084 62.3588 89.1139 60.229C90.646 57.523 92.0014 54.637 92.327 51.5102C92.7602 47.3509 92.3066 51.4751 87.1057 34.8422C87.0998 34.8063 87.1635 34.7484 87.1394 34.725C85.7722 30.2605 86.2012 31.773 85.7669 30.2736C84.6669 26.4732 83.3437 22.5111 80.4117 19.6971C77.8626 17.2502 74.5879 15.6621 71.2747 14.5259C68.8006 13.6775 66.237 13.0493 63.8775 11.8985C59.535 9.78044 55.4252 6.13563 50.2888 6.47642ZM51.7281 7.41355C53.0809 7.48054 54.3754 7.90617 55.6107 8.43441C57.7207 9.33687 59.641 10.7007 61.5014 12.0324C62.4209 12.6907 63.3115 13.3683 64.2792 13.957C65.761 14.8582 67.3723 15.5472 68.9318 16.2998C73.1543 18.3378 77.5917 20.2958 80.7635 23.8808C82.4981 25.8417 80.7716 23.8873 86.5868 35.3108C86.5948 35.3181 86.6114 35.2887 86.6205 35.2941C88.0894 39.1009 87.6134 37.8496 88.1098 39.1264C89.508 42.7234 90.7124 46.3698 90.6706 50.2718C90.6594 51.2984 90.5705 52.2991 90.3354 53.3009C89.2611 57.8818 86.1069 61.6348 84.8131 66.1363C83.9049 69.298 83.8578 72.6654 82.6877 75.7591C82.2137 77.0127 81.5738 78.2546 80.6125 79.2068C79.6663 80.1439 78.4919 80.9295 77.2489 81.4158C75.8603 81.9588 74.3726 82.188 72.9144 82.4531C72.0158 82.6164 71.1403 82.8718 70.2534 83.0893C69.1112 83.3693 67.9448 83.6226 66.8566 84.0762C64.2915 85.1462 62.0546 86.7115 59.8108 88.3272C58.2246 89.47 56.6384 90.4553 54.8241 91.2056C54.1974 91.4648 53.587 91.694 52.9163 91.8081C50.7623 92.1738 48.5438 91.7454 46.5737 90.8377C45.5423 90.3622 44.6001 89.7506 43.6116 89.1974C42.2081 88.4118 40.826 87.5512 39.4112 86.7876C37.0957 85.5382 34.5583 84.8206 32.0645 84.0264C31.2297 83.7603 30.3675 83.5503 29.5542 83.2231C28.9456 82.9784 28.3485 82.6491 27.7636 82.3529C26.1739 81.5475 24.6666 80.628 23.3456 79.4242C22.2029 78.3826 21.1748 77.138 20.2831 75.8764C19.5433 74.8294 18.9753 73.6834 18.392 72.546C17.4081 70.6283 16.6432 68.6088 15.8148 66.6221C15.3018 65.3914 14.7492 64.1838 14.1915 62.9736C13.6158 61.7242 12.93 60.5305 12.3339 59.2919C11.9259 58.4441 11.5816 57.5595 11.2462 56.6812C10.1309 53.7603 9.5376 50.7058 9.97432 47.5775C10.1088 46.614 10.3732 45.714 10.6939 44.7995C12.0627 40.8962 14.5725 37.4628 15.7144 33.4699C17.0558 28.7797 16.8262 22.7719 20.8855 19.3624C23.0493 17.5449 25.8624 17.086 28.5669 16.668C31.4842 16.2171 34.2993 15.9143 37.018 14.6766C39.1993 13.6835 41.1311 12.2117 43.0761 10.8275C45.6994 8.9605 48.3887 7.24829 51.7281 7.41355Z" fill="#ffffff" fill-rule="nonzero" opacity="1" stroke="none" vectornator:layerName="path"/>
<path d="M38.3166 26.7787C30.6441 26.7788 26.3934 30.787 26.3934 38.1286L26.3934 38.4726C26.3934 45.0866 29.802 48.9185 36.4823 49.2492L36.4823 49.4785C29.7359 49.8093 25.5909 54.082 25.5909 60.8283L25.5909 61.5164C25.5909 68.8578 30.3135 73.0954 38.3166 73.0954L46.3417 73.0954C48.1797 73.0954 49.6665 71.6088 49.6665 69.7709L49.6665 29.0717C49.6665 27.7621 48.6831 26.7787 47.3735 26.7787L41.6413 26.7787L38.3166 26.7787ZM53.7937 26.7787C52.4842 26.7787 51.3861 27.7621 51.3861 29.0717L51.3861 69.7709C51.3861 71.6088 52.8729 73.0954 54.7108 73.0954L62.8504 73.0954C70.8537 73.0954 75.5765 68.8578 75.5765 61.5164L75.5765 60.8283C75.5765 54.082 71.4316 49.8093 64.6851 49.4785L64.6851 49.2492C71.3652 48.9185 74.6591 45.0866 74.6591 38.4726L74.6591 38.1286C74.6591 30.787 70.5233 26.7788 62.8504 26.7787L59.5259 26.7787L53.7937 26.7787ZM33.3868 30.3328C39.3171 30.9653 49.3235 41.0594 47.8322 70.1147C47.8322 45.3241 24.4312 47.3831 29.3743 32.6257C29.8878 31.0924 31.4101 30.1219 33.3868 30.3328ZM67.7804 30.3328C69.757 30.1219 71.2795 31.0924 71.793 32.6257C76.7359 47.3831 53.3351 45.3241 53.3351 70.1147C51.8438 41.0594 61.8501 30.9653 67.7804 30.3328ZM33.0429 51.4275C41.1398 48.8095 47.8293 60.7833 47.6028 70.1147C44.497 61.5202 34.8321 64.6326 30.8646 63.809C24.4823 62.4852 26.306 53.6058 33.0429 51.4275ZM68.1242 51.4275C74.861 53.6058 76.5704 62.4852 70.1881 63.809C66.2204 64.6326 56.5554 61.5202 53.4497 70.1147C53.2233 60.7833 60.0277 48.8095 68.1242 51.4275Z" fill="#fffaf1" fill-rule="nonzero" opacity="1" stroke="none" vectornator:layerName="Curve 1"/>
</g>
</g>
</svg>
